<?xml version="1.0" encoding="UTF-8" standalone="no"?>
<!DOCTYPE svg PUBLIC "-//W3C//DTD SVG 1.1//EN"
 "http://www.w3.org/Graphics/SVG/1.1/DTD/svg11.dtd">
<!-- Generated by graphviz version 2.43.0 (0)
 -->
<!-- Pages: 1 -->
<svg width="141pt" height="174pt"
 viewBox="0.00 0.00 140.61 173.57" xmlns="http://www.w3.org/2000/svg" xmlns:xlink="http://www.w3.org/1999/xlink">
<g id="graph0" class="graph" transform="scale(1 1) rotate(0) translate(4 169.57)">
<polygon fill="white" stroke="transparent" points="-4,4 -4,-169.57 136.61,-169.57 136.61,4 -4,4"/>
<!-- n2 -->
<g id="node1" class="node">
<title>n2</title>
<ellipse fill="none" stroke="black" cx="32.91" cy="-73.16" rx="27" ry="18"/>
<text text-anchor="middle" x="32.91" y="-69.46" font-family="Times,serif" font-size="14.00">n2</text>
</g>
<!-- n1 -->
<g id="node2" class="node">
<title>n1</title>
<ellipse fill="none" stroke="black" cx="83.17" cy="-104.39" rx="27" ry="18"/>
<text text-anchor="middle" x="83.17" y="-100.69" font-family="Times,serif" font-size="14.00">n1</text>
</g>
<!-- n2&#45;&#45;n1 -->
<g id="edge1" class="edge">
<title>n2&#45;&#45;n1</title>
<path fill="none" stroke="black" d="M46.27,-89C49.98,-91.7 54.11,-94.38 58.24,-96.77"/>
</g>
<!-- n2&#45;&#45;n1 -->
<g id="edge2" class="edge">
<title>n2&#45;&#45;n1</title>
<path fill="none" stroke="black" d="M57.75,-80.73C61.9,-83.13 66.05,-85.82 69.78,-88.53"/>
</g>
<!-- n3 -->
<g id="node3" class="node">
<title>n3</title>
<ellipse fill="none" stroke="black" cx="46.42" cy="-19.12" rx="27" ry="18"/>
<text text-anchor="middle" x="46.42" y="-15.42" font-family="Times,serif" font-size="14.00">n3</text>
</g>
<!-- n2&#45;&#45;n3 -->
<g id="edge3" class="edge">
<title>n2&#45;&#45;n3</title>
<path fill="none" stroke="black" d="M37.41,-55.17C38.85,-49.39 40.45,-43 41.89,-37.22"/>
</g>
<!-- n5 -->
<g id="node4" class="node">
<title>n5</title>
<ellipse fill="none" stroke="black" cx="27" cy="-147.57" rx="27" ry="18"/>
<text text-anchor="middle" x="27" y="-143.87" font-family="Times,serif" font-size="14.00">n5</text>
</g>
<!-- n2&#45;&#45;n5 -->
<g id="edge4" class="edge">
<title>n2&#45;&#45;n5</title>
<path fill="none" stroke="black" d="M31.48,-91.17C30.56,-102.79 29.36,-117.84 28.44,-129.47"/>
</g>
<!-- n4 -->
<g id="node5" class="node">
<title>n4</title>
<ellipse fill="none" stroke="black" cx="105.61" cy="-18" rx="27" ry="18"/>
<text text-anchor="middle" x="105.61" y="-14.3" font-family="Times,serif" font-size="14.00">n4</text>
</g>
<!-- n2&#45;&#45;n4 -->
<g id="edge5" class="edge">
<title>n2&#45;&#45;n4</title>
<path fill="none" stroke="black" d="M50.88,-59.53C62.07,-51.04 76.4,-40.16 87.59,-31.67"/>
</g>
<!-- n1&#45;&#45;n1 -->
<g id="edge6" class="edge">
<title>n1&#45;&#45;n1</title>
<path fill="none" stroke="black" d="M108.62,-111.08C119.2,-111.55 128.17,-109.32 128.17,-104.39 128.17,-99.47 119.2,-97.24 108.62,-97.7"/>
</g>
<!-- n1&#45;&#45;n3 -->
<g id="edge7" class="edge">
<title>n1&#45;&#45;n3</title>
<path fill="none" stroke="black" d="M75.56,-86.72C69.21,-71.99 60.21,-51.12 53.9,-36.47"/>
</g>
<!-- n1&#45;&#45;n5 -->
<g id="edge8" class="edge">
<title>n1&#45;&#45;n5</title>
<path fill="none" stroke="black" d="M65.4,-118.06C58.84,-123.1 51.41,-128.81 44.85,-133.85"/>
</g>
<!-- n3&#45;&#45;n4 -->
<g id="edge9" class="edge">
<title>n3&#45;&#45;n4</title>
<path fill="none" stroke="black" d="M73.59,-18.6C75.17,-18.57 76.76,-18.55 78.34,-18.52"/>
</g>
</g>
</svg>
